<?xml version="1.0" ?><svg height="84" id="svg8" version="1.1" viewBox="0 0 22.224999 22.225001" width="84" xmlns="http://www.w3.org/2000/svg" xmlns:cc="http://creativecommons.org/ns#" xmlns:dc="http://purl.org/dc/elements/1.1/" xmlns:inkscape="http://www.inkscape.org/namespaces/inkscape" xmlns:rdf="http://www.w3.org/1999/02/22-rdf-syntax-ns#" xmlns:sodipodi="http://sodipodi.sourceforge.net/DTD/sodipodi-0.dtd" xmlns:svg="http://www.w3.org/2000/svg" xmlns:xlink="http://www.w3.org/1999/xlink"><defs id="defs2"><linearGradient id="linearGradient953"><stop id="stop949" offset="0" style="stop-color:#992930;stop-opacity:1"/><stop id="stop951" offset="1" style="stop-color:#ffffff;stop-opacity:0"/></linearGradient><clipPath clipPathUnits="userSpaceOnUse" id="clipPath913"><rect height="22.225" id="rect915" ry="1.0561733" style="opacity:1;fill:#cccccc;fill-opacity:1;stroke:none;stroke-width:2.3812499;stroke-miterlimit:4;stroke-dasharray:none;stroke-opacity:1" width="22.225" x="5.1662187e-07" y="274.77499"/></clipPath><filter height="1.024" id="filter925" style="color-interpolation-filters:sRGB" width="1.024" x="-0.012000002" y="-0.011999998"><feGaussianBlur id="feGaussianBlur927" stdDeviation="0.11112502"/></filter><linearGradient gradientTransform="matrix(0.98652479,0,0,0.98652479,-25.933599,3.3303045)" gradientUnits="userSpaceOnUse" id="linearGradient955" x1="36.43552" x2="36.43552" xlink:href="#linearGradient953" y1="297" y2="275.85895"/><clipPath clipPathUnits="userSpaceOnUse" id="clipPath1116"><rect height="4.1671872" id="rect1118" ry="1.0583333" style="opacity:1;fill:#ffffff;fill-opacity:1;stroke:none;stroke-width:2.3812499;stroke-miterlimit:4;stroke-dasharray:none;stroke-opacity:1" width="14.188281" x="4.1536818" y="296.42569"/></clipPath><clipPath clipPathUnits="userSpaceOnUse" id="clipPath1248"><rect height="21.166668" id="rect1250" ry="1.0058795" style="opacity:1;fill:#cccccc;fill-opacity:1;stroke:none;stroke-width:2.38125014;stroke-miterlimit:4;stroke-dasharray:none;stroke-opacity:1" width="21.166668" x="89.095863" y="232.93982"/></clipPath><clipPath clipPathUnits="userSpaceOnUse" id="clipPath1116-3"><rect height="4.1671872" id="rect1118-6" ry="1.0583333" style="opacity:1;fill:#ffffff;fill-opacity:1;stroke:none;stroke-width:2.3812499;stroke-miterlimit:4;stroke-dasharray:none;stroke-opacity:1" width="14.188281" x="4.1536818" y="296.42569"/></clipPath><clipPath clipPathUnits="userSpaceOnUse" id="clipPath1116-3-7"><rect height="4.1671872" id="rect1118-6-5" ry="1.0583333" style="opacity:1;fill:#ffffff;fill-opacity:1;stroke:none;stroke-width:2.3812499;stroke-miterlimit:4;stroke-dasharray:none;stroke-opacity:1" width="14.188281" x="4.1536818" y="296.42569"/></clipPath><filter height="4.2609401" id="filter1252" style="color-interpolation-filters:sRGB" width="1.3716171" x="-0.18580855" y="-1.6304702"><feGaussianBlur id="feGaussianBlur1254" stdDeviation="0.89873998"/></filter><linearGradient gradientTransform="matrix(0.94047407,0,0,0.94047407,0.66150631,17.017681)" gradientUnits="userSpaceOnUse" id="linearGradient881" x1="9.705225" x2="9.705225" xlink:href="#linearGradient879" y1="274.82999" y2="290.70914"/><linearGradient id="linearGradient879"><stop id="stop875" offset="0" style="stop-color:#ffffff;stop-opacity:0.49019608"/><stop id="stop877" offset="1" style="stop-color:#ffffff;stop-opacity:0;"/></linearGradient></defs><g id="layer1" transform="translate(0,-274.77498)"><g id="g1472"><g id="g1360"><rect height="22.225006" id="rect923" ry="1.0583333" style="opacity:0.65;fill:#000000;fill-opacity:1;stroke:none;stroke-width:2.43836641;stroke-miterlimit:4;stroke-dasharray:none;stroke-opacity:1;filter:url(#filter925)" transform="matrix(0.97657594,0,0,0.97657594,35.248554,34.650697)" width="22.225" x="-35.82748" y="246.15042"/><g clip-path="url(#clipPath1248)" id="g1231" transform="matrix(0.98749992,0,0,0.98749992,-87.320699,45.408386)"><rect height="21.166666" id="rect1167" style="opacity:1;fill:#ffffff;fill-opacity:1;stroke:none;stroke-width:8.53018284;stroke-miterlimit:4;stroke-dasharray:none;stroke-opacity:1" width="34.721535" x="89.095863" y="232.93982"/><g id="g1165" transform="matrix(0.98863135,0,0,0.98863135,35.734484,-8.6529674)"><rect height="1.7216699" id="rect1037" style="opacity:1;fill:#e72b37;fill-opacity:1;stroke:none;stroke-width:2.3812499;stroke-miterlimit:4;stroke-dasharray:none;stroke-opacity:1" width="35.120857" x="53.974998" y="264.05936"/><rect height="1.7216699" id="rect1039" style="opacity:1;fill:#e72b37;fill-opacity:1;stroke:none;stroke-width:2.3812499;stroke-miterlimit:4;stroke-dasharray:none;stroke-opacity:1" width="35.120857" x="53.974998" y="260.80167"/><rect height="1.7216699" id="rect1041" style="opacity:1;fill:#e72b37;fill-opacity:1;stroke:none;stroke-width:2.3812499;stroke-miterlimit:4;stroke-dasharray:none;stroke-opacity:1" width="35.120857" x="53.974998" y="257.51093"/><rect height="1.7216699" id="rect1043" style="opacity:1;fill:#e72b37;fill-opacity:1;stroke:none;stroke-width:2.3812499;stroke-miterlimit:4;stroke-dasharray:none;stroke-opacity:1" width="35.120857" x="53.974998" y="254.21234"/><rect height="1.7216699" id="rect1045" style="opacity:1;fill:#e72b37;fill-opacity:1;stroke:none;stroke-width:2.3812499;stroke-miterlimit:4;stroke-dasharray:none;stroke-opacity:1" width="35.120857" x="53.974998" y="250.94595"/><rect height="1.7216699" id="rect1047" style="opacity:1;fill:#e72b37;fill-opacity:1;stroke:none;stroke-width:2.3812499;stroke-miterlimit:4;stroke-dasharray:none;stroke-opacity:1" width="35.120857" x="53.974998" y="247.67174"/><rect height="1.7216699" id="rect1049" style="opacity:1;fill:#e72b37;fill-opacity:1;stroke:none;stroke-width:2.3812499;stroke-miterlimit:4;stroke-dasharray:none;stroke-opacity:1" width="35.120857" x="53.974998" y="244.37096"/><g id="g1103" transform="translate(-0.03755188)"><rect height="11.56306" id="rect1035" style="opacity:1;fill:#014289;fill-opacity:1;stroke:none;stroke-width:2.38428068;stroke-miterlimit:4;stroke-dasharray:none;stroke-opacity:1" width="16.297709" x="54.01255" y="244.37096"/><g id="g1033"><path d="m 55.744838,246.06462 -0.377879,-0.26782 -0.379391,0.26568 0.137948,-0.44215 -0.369917,-0.27872 0.463136,-0.005 0.15077,-0.43794 0.148285,0.43879 0.463098,0.008 -0.37149,0.27662 z" id="path881" style="opacity:1;fill:#ffffff;fill-opacity:1;stroke:none;stroke-width:1.96941161;stroke-miterlimit:4;stroke-dasharray:none;stroke-opacity:1"/><path d="m 58.457622,246.06462 -0.377879,-0.26782 -0.379391,0.26568 0.137948,-0.44215 -0.369917,-0.27872 0.463136,-0.005 0.15077,-0.43794 0.148285,0.43879 0.463098,0.008 -0.371491,0.27662 z" id="path883" style="opacity:1;fill:#ffffff;fill-opacity:1;stroke:none;stroke-width:1.96941161;stroke-miterlimit:4;stroke-dasharray:none;stroke-opacity:1"/><path d="m 61.170409,246.06462 -0.377879,-0.26782 -0.379391,0.26568 0.137948,-0.44215 -0.369916,-0.27872 0.463136,-0.005 0.150769,-0.43794 0.148286,0.43879 0.463097,0.008 -0.37149,0.27662 z" id="path885" style="opacity:1;fill:#ffffff;fill-opacity:1;stroke:none;stroke-width:1.96941161;stroke-miterlimit:4;stroke-dasharray:none;stroke-opacity:1"/><path d="m 63.883193,246.06462 -0.377879,-0.26782 -0.379391,0.26568 0.137948,-0.44215 -0.369916,-0.27872 0.463135,-0.005 0.15077,-0.43794 0.148286,0.43879 0.463097,0.008 -0.37149,0.27662 z" id="path887" style="opacity:1;fill:#ffffff;fill-opacity:1;stroke:none;stroke-width:1.96941161;stroke-miterlimit:4;stroke-dasharray:none;stroke-opacity:1"/><path d="m 66.607673,246.06462 -0.377879,-0.26782 -0.379391,0.26568 0.137948,-0.44215 -0.369917,-0.27872 0.463136,-0.005 0.15077,-0.43794 0.148285,0.43879 0.463098,0.008 -0.37149,0.27662 z" id="path889" style="opacity:1;fill:#ffffff;fill-opacity:1;stroke:none;stroke-width:1.96941161;stroke-miterlimit:4;stroke-dasharray:none;stroke-opacity:1"/><path d="m 69.320457,246.06462 -0.377879,-0.26782 -0.379391,0.26568 0.137948,-0.44215 -0.369917,-0.27872 0.463136,-0.005 0.15077,-0.43794 0.148285,0.43879 0.463098,0.008 -0.371491,0.27662 z" id="path891" style="opacity:1;fill:#ffffff;fill-opacity:1;stroke:none;stroke-width:1.96941161;stroke-miterlimit:4;stroke-dasharray:none;stroke-opacity:1"/><path d="m 55.744838,248.34665 -0.377879,-0.26783 -0.379391,0.26569 0.137948,-0.44215 -0.369917,-0.27872 0.463136,-0.005 0.15077,-0.43794 0.148285,0.43879 0.463098,0.008 -0.37149,0.27662 z" id="path893" style="opacity:1;fill:#ffffff;fill-opacity:1;stroke:none;stroke-width:1.96941161;stroke-miterlimit:4;stroke-dasharray:none;stroke-opacity:1"/><path d="m 58.457622,248.34665 -0.377879,-0.26783 -0.379391,0.26569 0.137948,-0.44215 -0.369917,-0.27872 0.463136,-0.005 0.15077,-0.43794 0.148285,0.43879 0.463098,0.008 -0.371491,0.27662 z" id="path895" style="opacity:1;fill:#ffffff;fill-opacity:1;stroke:none;stroke-width:1.96941161;stroke-miterlimit:4;stroke-dasharray:none;stroke-opacity:1"/><path d="m 61.170409,248.34665 -0.377879,-0.26783 -0.379391,0.26569 0.137948,-0.44215 -0.369916,-0.27872 0.463136,-0.005 0.150769,-0.43794 0.148286,0.43879 0.463097,0.008 -0.37149,0.27662 z" id="path897" style="opacity:1;fill:#ffffff;fill-opacity:1;stroke:none;stroke-width:1.96941161;stroke-miterlimit:4;stroke-dasharray:none;stroke-opacity:1"/><path d="m 63.883193,248.34665 -0.377879,-0.26783 -0.379391,0.26569 0.137948,-0.44215 -0.369916,-0.27872 0.463135,-0.005 0.15077,-0.43794 0.148286,0.43879 0.463097,0.008 -0.37149,0.27662 z" id="path899" style="opacity:1;fill:#ffffff;fill-opacity:1;stroke:none;stroke-width:1.96941161;stroke-miterlimit:4;stroke-dasharray:none;stroke-opacity:1"/><path d="m 66.607673,248.34665 -0.377879,-0.26783 -0.379391,0.26569 0.137948,-0.44215 -0.369917,-0.27872 0.463136,-0.005 0.15077,-0.43794 0.148285,0.43879 0.463098,0.008 -0.37149,0.27662 z" id="path901" style="opacity:1;fill:#ffffff;fill-opacity:1;stroke:none;stroke-width:1.96941161;stroke-miterlimit:4;stroke-dasharray:none;stroke-opacity:1"/><path d="m 69.320457,248.34665 -0.377879,-0.26783 -0.379391,0.26569 0.137948,-0.44215 -0.369917,-0.27872 0.463136,-0.005 0.15077,-0.43794 0.148285,0.43879 0.463098,0.008 -0.371491,0.27662 z" id="path903" style="opacity:1;fill:#ffffff;fill-opacity:1;stroke:none;stroke-width:1.96941161;stroke-miterlimit:4;stroke-dasharray:none;stroke-opacity:1"/><path d="m 55.744838,250.66176 -0.377879,-0.26783 -0.379391,0.26569 0.137948,-0.44215 -0.369917,-0.27872 0.463136,-0.005 0.15077,-0.43794 0.148285,0.43879 0.463098,0.008 -0.37149,0.27662 z" id="path905" style="opacity:1;fill:#ffffff;fill-opacity:1;stroke:none;stroke-width:1.96941161;stroke-miterlimit:4;stroke-dasharray:none;stroke-opacity:1"/><path d="m 58.457622,250.66176 -0.377879,-0.26783 -0.379391,0.26569 0.137948,-0.44215 -0.369917,-0.27872 0.463136,-0.005 0.15077,-0.43794 0.148285,0.43879 0.463098,0.008 -0.371491,0.27662 z" id="path907" style="opacity:1;fill:#ffffff;fill-opacity:1;stroke:none;stroke-width:1.96941161;stroke-miterlimit:4;stroke-dasharray:none;stroke-opacity:1"/><path d="m 61.170409,250.66176 -0.377879,-0.26783 -0.379391,0.26569 0.137948,-0.44215 -0.369916,-0.27872 0.463136,-0.005 0.150769,-0.43794 0.148286,0.43879 0.463097,0.008 -0.37149,0.27662 z" id="path909" style="opacity:1;fill:#ffffff;fill-opacity:1;stroke:none;stroke-width:1.96941161;stroke-miterlimit:4;stroke-dasharray:none;stroke-opacity:1"/><path d="m 63.883193,250.66176 -0.377879,-0.26783 -0.379391,0.26569 0.137948,-0.44215 -0.369916,-0.27872 0.463135,-0.005 0.15077,-0.43794 0.148286,0.43879 0.463097,0.008 -0.37149,0.27662 z" id="path911" style="opacity:1;fill:#ffffff;fill-opacity:1;stroke:none;stroke-width:1.96941161;stroke-miterlimit:4;stroke-dasharray:none;stroke-opacity:1"/><path d="m 66.607673,250.66176 -0.377879,-0.26783 -0.379391,0.26569 0.137948,-0.44215 -0.369917,-0.27872 0.463136,-0.005 0.15077,-0.43794 0.148285,0.43879 0.463098,0.008 -0.37149,0.27662 z" id="path913" style="opacity:1;fill:#ffffff;fill-opacity:1;stroke:none;stroke-width:1.96941161;stroke-miterlimit:4;stroke-dasharray:none;stroke-opacity:1"/><path d="m 69.320457,250.66176 -0.377879,-0.26783 -0.379391,0.26569 0.137948,-0.44215 -0.369917,-0.27872 0.463136,-0.005 0.15077,-0.43794 0.148285,0.43879 0.463098,0.008 -0.371491,0.27662 z" id="path915" style="opacity:1;fill:#ffffff;fill-opacity:1;stroke:none;stroke-width:1.96941161;stroke-miterlimit:4;stroke-dasharray:none;stroke-opacity:1"/><path d="m 55.744838,252.96033 -0.377879,-0.26783 -0.379391,0.26568 0.137948,-0.44214 -0.369917,-0.27873 0.463136,-0.005 0.15077,-0.43794 0.148285,0.43879 0.463098,0.008 -0.37149,0.27662 z" id="path917" style="opacity:1;fill:#ffffff;fill-opacity:1;stroke:none;stroke-width:1.96941161;stroke-miterlimit:4;stroke-dasharray:none;stroke-opacity:1"/><path d="m 58.457622,252.96033 -0.377879,-0.26783 -0.379391,0.26568 0.137948,-0.44214 -0.369917,-0.27873 0.463136,-0.005 0.15077,-0.43794 0.148285,0.43879 0.463098,0.008 -0.371491,0.27662 z" id="path919" style="opacity:1;fill:#ffffff;fill-opacity:1;stroke:none;stroke-width:1.96941161;stroke-miterlimit:4;stroke-dasharray:none;stroke-opacity:1"/><path d="m 61.170409,252.96033 -0.377879,-0.26783 -0.379391,0.26568 0.137948,-0.44214 -0.369916,-0.27873 0.463136,-0.005 0.150769,-0.43794 0.148286,0.43879 0.463097,0.008 -0.37149,0.27662 z" id="path921" style="opacity:1;fill:#ffffff;fill-opacity:1;stroke:none;stroke-width:1.96941161;stroke-miterlimit:4;stroke-dasharray:none;stroke-opacity:1"/><path d="m 63.883193,252.96033 -0.377879,-0.26783 -0.379391,0.26568 0.137948,-0.44214 -0.369916,-0.27873 0.463135,-0.005 0.15077,-0.43794 0.148286,0.43879 0.463097,0.008 -0.37149,0.27662 z" id="path923" style="opacity:1;fill:#ffffff;fill-opacity:1;stroke:none;stroke-width:1.96941161;stroke-miterlimit:4;stroke-dasharray:none;stroke-opacity:1"/><path d="m 66.607673,252.96033 -0.377879,-0.26783 -0.379391,0.26568 0.137948,-0.44214 -0.369917,-0.27873 0.463136,-0.005 0.15077,-0.43794 0.148285,0.43879 0.463098,0.008 -0.37149,0.27662 z" id="path925" style="opacity:1;fill:#ffffff;fill-opacity:1;stroke:none;stroke-width:1.96941161;stroke-miterlimit:4;stroke-dasharray:none;stroke-opacity:1"/><path d="m 69.320457,252.96033 -0.377879,-0.26783 -0.379391,0.26568 0.137948,-0.44214 -0.369917,-0.27873 0.463136,-0.005 0.15077,-0.43794 0.148285,0.43879 0.463098,0.008 -0.371491,0.27662 z" id="path927" style="opacity:1;fill:#ffffff;fill-opacity:1;stroke:none;stroke-width:1.96941161;stroke-miterlimit:4;stroke-dasharray:none;stroke-opacity:1"/><path d="m 55.744838,255.27542 -0.377879,-0.26782 -0.379391,0.26568 0.137948,-0.44215 -0.369917,-0.27872 0.463136,-0.005 0.15077,-0.43794 0.148285,0.43879 0.463098,0.008 -0.37149,0.27662 z" id="path929" style="opacity:1;fill:#ffffff;fill-opacity:1;stroke:none;stroke-width:1.96941161;stroke-miterlimit:4;stroke-dasharray:none;stroke-opacity:1"/><path d="m 58.457622,255.27542 -0.377879,-0.26782 -0.379391,0.26568 0.137948,-0.44215 -0.369917,-0.27872 0.463136,-0.005 0.15077,-0.43794 0.148285,0.43879 0.463098,0.008 -0.371491,0.27662 z" id="path931" style="opacity:1;fill:#ffffff;fill-opacity:1;stroke:none;stroke-width:1.96941161;stroke-miterlimit:4;stroke-dasharray:none;stroke-opacity:1"/><path d="m 61.170409,255.27542 -0.377879,-0.26782 -0.379391,0.26568 0.137948,-0.44215 -0.369916,-0.27872 0.463136,-0.005 0.150769,-0.43794 0.148286,0.43879 0.463097,0.008 -0.37149,0.27662 z" id="path933" style="opacity:1;fill:#ffffff;fill-opacity:1;stroke:none;stroke-width:1.96941161;stroke-miterlimit:4;stroke-dasharray:none;stroke-opacity:1"/><path d="m 63.883193,255.27542 -0.377879,-0.26782 -0.379391,0.26568 0.137948,-0.44215 -0.369916,-0.27872 0.463135,-0.005 0.15077,-0.43794 0.148286,0.43879 0.463097,0.008 -0.37149,0.27662 z" id="path935" style="opacity:1;fill:#ffffff;fill-opacity:1;stroke:none;stroke-width:1.96941161;stroke-miterlimit:4;stroke-dasharray:none;stroke-opacity:1"/><path d="m 66.607673,255.27542 -0.377879,-0.26782 -0.379391,0.26568 0.137948,-0.44215 -0.369917,-0.27872 0.463136,-0.005 0.15077,-0.43794 0.148285,0.43879 0.463098,0.008 -0.37149,0.27662 z" id="path937" style="opacity:1;fill:#ffffff;fill-opacity:1;stroke:none;stroke-width:1.96941161;stroke-miterlimit:4;stroke-dasharray:none;stroke-opacity:1"/><path d="m 69.320457,255.27542 -0.377879,-0.26782 -0.379391,0.26568 0.137948,-0.44215 -0.369917,-0.27872 0.463136,-0.005 0.15077,-0.43794 0.148285,0.43879 0.463098,0.008 -0.371491,0.27662 z" id="path939" style="opacity:1;fill:#ffffff;fill-opacity:1;stroke:none;stroke-width:1.96941161;stroke-miterlimit:4;stroke-dasharray:none;stroke-opacity:1"/><path d="m 57.104964,247.21805 -0.377879,-0.26783 -0.379391,0.26568 0.137949,-0.44214 -0.369917,-0.27872 0.463136,-0.005 0.150769,-0.43794 0.148286,0.43879 0.463097,0.008 -0.37149,0.27662 z" id="path941" style="opacity:1;fill:#ffffff;fill-opacity:1;stroke:none;stroke-width:1.96941161;stroke-miterlimit:4;stroke-dasharray:none;stroke-opacity:1"/><path d="m 59.817744,247.21805 -0.377879,-0.26783 -0.379391,0.26568 0.137949,-0.44214 -0.369917,-0.27872 0.463136,-0.005 0.150769,-0.43794 0.148286,0.43879 0.463097,0.008 -0.37149,0.27662 z" id="path943" style="opacity:1;fill:#ffffff;fill-opacity:1;stroke:none;stroke-width:1.96941161;stroke-miterlimit:4;stroke-dasharray:none;stroke-opacity:1"/><path d="m 62.530532,247.21805 -0.377879,-0.26783 -0.379391,0.26568 0.137948,-0.44214 -0.369916,-0.27872 0.463135,-0.005 0.15077,-0.43794 0.148286,0.43879 0.463097,0.008 -0.37149,0.27662 z" id="path945" style="opacity:1;fill:#ffffff;fill-opacity:1;stroke:none;stroke-width:1.96941161;stroke-miterlimit:4;stroke-dasharray:none;stroke-opacity:1"/><path d="m 65.243316,247.21805 -0.377879,-0.26783 -0.379391,0.26568 0.137948,-0.44214 -0.369917,-0.27872 0.463136,-0.005 0.15077,-0.43794 0.148285,0.43879 0.463098,0.008 -0.37149,0.27662 z" id="path947" style="opacity:1;fill:#ffffff;fill-opacity:1;stroke:none;stroke-width:1.96941161;stroke-miterlimit:4;stroke-dasharray:none;stroke-opacity:1"/><path d="m 67.967795,247.21805 -0.377879,-0.26783 -0.37939,0.26568 0.137948,-0.44214 -0.369917,-0.27872 0.463136,-0.005 0.150769,-0.43794 0.148286,0.43879 0.463097,0.008 -0.37149,0.27662 z" id="path949" style="opacity:1;fill:#ffffff;fill-opacity:1;stroke:none;stroke-width:1.96941161;stroke-miterlimit:4;stroke-dasharray:none;stroke-opacity:1"/><path d="m 57.104964,249.50008 -0.377879,-0.26783 -0.379391,0.26568 0.137949,-0.44214 -0.369917,-0.27873 0.463136,-0.005 0.150769,-0.43794 0.148286,0.43879 0.463097,0.008 -0.37149,0.27662 z" id="path953" style="opacity:1;fill:#ffffff;fill-opacity:1;stroke:none;stroke-width:1.96941161;stroke-miterlimit:4;stroke-dasharray:none;stroke-opacity:1"/><path d="m 59.817744,249.50008 -0.377879,-0.26783 -0.379391,0.26568 0.137949,-0.44214 -0.369917,-0.27873 0.463136,-0.005 0.150769,-0.43794 0.148286,0.43879 0.463097,0.008 -0.37149,0.27662 z" id="path955" style="opacity:1;fill:#ffffff;fill-opacity:1;stroke:none;stroke-width:1.96941161;stroke-miterlimit:4;stroke-dasharray:none;stroke-opacity:1"/><path d="m 62.530532,249.50008 -0.377879,-0.26783 -0.379391,0.26568 0.137948,-0.44214 -0.369916,-0.27873 0.463135,-0.005 0.15077,-0.43794 0.148286,0.43879 0.463097,0.008 -0.37149,0.27662 z" id="path957" style="opacity:1;fill:#ffffff;fill-opacity:1;stroke:none;stroke-width:1.96941161;stroke-miterlimit:4;stroke-dasharray:none;stroke-opacity:1"/><path d="m 65.243316,249.50008 -0.377879,-0.26783 -0.379391,0.26568 0.137948,-0.44214 -0.369917,-0.27873 0.463136,-0.005 0.15077,-0.43794 0.148285,0.43879 0.463098,0.008 -0.37149,0.27662 z" id="path959" style="opacity:1;fill:#ffffff;fill-opacity:1;stroke:none;stroke-width:1.96941161;stroke-miterlimit:4;stroke-dasharray:none;stroke-opacity:1"/><path d="m 67.967795,249.50008 -0.377879,-0.26783 -0.37939,0.26568 0.137948,-0.44214 -0.369917,-0.27873 0.463136,-0.005 0.150769,-0.43794 0.148286,0.43879 0.463097,0.008 -0.37149,0.27662 z" id="path961" style="opacity:1;fill:#ffffff;fill-opacity:1;stroke:none;stroke-width:1.96941161;stroke-miterlimit:4;stroke-dasharray:none;stroke-opacity:1"/><path d="m 57.104964,251.81517 -0.377879,-0.26782 -0.379391,0.26568 0.137949,-0.44215 -0.369917,-0.27872 0.463136,-0.005 0.150769,-0.43794 0.148286,0.43879 0.463097,0.008 -0.37149,0.27662 z" id="path963" style="opacity:1;fill:#ffffff;fill-opacity:1;stroke:none;stroke-width:1.96941161;stroke-miterlimit:4;stroke-dasharray:none;stroke-opacity:1"/><path d="m 59.817744,251.81517 -0.377879,-0.26782 -0.379391,0.26568 0.137949,-0.44215 -0.369917,-0.27872 0.463136,-0.005 0.150769,-0.43794 0.148286,0.43879 0.463097,0.008 -0.37149,0.27662 z" id="path965" style="opacity:1;fill:#ffffff;fill-opacity:1;stroke:none;stroke-width:1.96941161;stroke-miterlimit:4;stroke-dasharray:none;stroke-opacity:1"/><path d="m 62.530532,251.81517 -0.377879,-0.26782 -0.379391,0.26568 0.137948,-0.44215 -0.369916,-0.27872 0.463135,-0.005 0.15077,-0.43794 0.148286,0.43879 0.463097,0.008 -0.37149,0.27662 z" id="path967" style="opacity:1;fill:#ffffff;fill-opacity:1;stroke:none;stroke-width:1.96941161;stroke-miterlimit:4;stroke-dasharray:none;stroke-opacity:1"/><path d="m 65.243316,251.81517 -0.377879,-0.26782 -0.379391,0.26568 0.137948,-0.44215 -0.369917,-0.27872 0.463136,-0.005 0.15077,-0.43794 0.148285,0.43879 0.463098,0.008 -0.37149,0.27662 z" id="path969" style="opacity:1;fill:#ffffff;fill-opacity:1;stroke:none;stroke-width:1.96941161;stroke-miterlimit:4;stroke-dasharray:none;stroke-opacity:1"/><path d="m 67.967795,251.81517 -0.377879,-0.26782 -0.37939,0.26568 0.137948,-0.44215 -0.369917,-0.27872 0.463136,-0.005 0.150769,-0.43794 0.148286,0.43879 0.463097,0.008 -0.37149,0.27662 z" id="path971" style="opacity:1;fill:#ffffff;fill-opacity:1;stroke:none;stroke-width:1.96941161;stroke-miterlimit:4;stroke-dasharray:none;stroke-opacity:1"/><path d="m 57.104964,254.13028 -0.377879,-0.26783 -0.379391,0.26569 0.137949,-0.44215 -0.369917,-0.27872 0.463136,-0.005 0.150769,-0.43794 0.148286,0.43879 0.463097,0.008 -0.37149,0.27662 z" id="path973" style="opacity:1;fill:#ffffff;fill-opacity:1;stroke:none;stroke-width:1.96941161;stroke-miterlimit:4;stroke-dasharray:none;stroke-opacity:1"/><path d="m 59.817744,254.13028 -0.377879,-0.26783 -0.379391,0.26569 0.137949,-0.44215 -0.369917,-0.27872 0.463136,-0.005 0.150769,-0.43794 0.148286,0.43879 0.463097,0.008 -0.37149,0.27662 z" id="path975" style="opacity:1;fill:#ffffff;fill-opacity:1;stroke:none;stroke-width:1.96941161;stroke-miterlimit:4;stroke-dasharray:none;stroke-opacity:1"/><path d="m 62.530532,254.13028 -0.377879,-0.26783 -0.379391,0.26569 0.137948,-0.44215 -0.369916,-0.27872 0.463135,-0.005 0.15077,-0.43794 0.148286,0.43879 0.463097,0.008 -0.37149,0.27662 z" id="path977" style="opacity:1;fill:#ffffff;fill-opacity:1;stroke:none;stroke-width:1.96941161;stroke-miterlimit:4;stroke-dasharray:none;stroke-opacity:1"/><path d="m 65.243316,254.13028 -0.377879,-0.26783 -0.379391,0.26569 0.137948,-0.44215 -0.369917,-0.27872 0.463136,-0.005 0.15077,-0.43794 0.148285,0.43879 0.463098,0.008 -0.37149,0.27662 z" id="path979" style="opacity:1;fill:#ffffff;fill-opacity:1;stroke:none;stroke-width:1.96941161;stroke-miterlimit:4;stroke-dasharray:none;stroke-opacity:1"/><path d="m 67.967795,254.13028 -0.377879,-0.26783 -0.37939,0.26569 0.137948,-0.44215 -0.369917,-0.27872 0.463136,-0.005 0.150769,-0.43794 0.148286,0.43879 0.463097,0.008 -0.37149,0.27662 z" id="path981" style="opacity:1;fill:#ffffff;fill-opacity:1;stroke:none;stroke-width:1.96941161;stroke-miterlimit:4;stroke-dasharray:none;stroke-opacity:1"/></g></g></g></g><rect height="20.881441" id="rect947" ry="0.99232495" style="opacity:0.4;fill:url(#linearGradient955);fill-opacity:1;stroke:none;stroke-width:2.3812499;stroke-miterlimit:4;stroke-dasharray:none;stroke-opacity:1" width="20.881441" x="0.67177945" y="275.44675"/></g><path d="m 1.6548505,275.43651 c -0.5502909,0 -0.99339161,0.44261 -0.99339161,0.9929 v 18.91574 c 0,0.55029 0.44310071,0.99339 0.99339161,0.99339 H 20.570106 c 0.550288,0 0.993389,-0.4431 0.993389,-0.99339 v -18.91574 c 0,-0.55029 -0.443101,-0.9929 -0.993389,-0.9929 z m 0.2104387,0.49913 H 20.359664 c 0.524,0 0.945763,0.42176 0.945763,0.94575 v 18.01177 c 0,0.524 -0.421763,0.94577 -0.945763,0.94577 H 1.8652892 c -0.5239991,0 -0.94576232,-0.42177 -0.94576232,-0.94577 v -18.01177 c 0,-0.52399 0.42176322,-0.94575 0.94576232,-0.94575 z" id="rect826" style="display:inline;opacity:1;fill:url(#linearGradient881);fill-opacity:1;stroke:none;stroke-width:2.38125014;stroke-miterlimit:4;stroke-dasharray:none;stroke-opacity:1"/><ellipse clip-path="url(#clipPath1116-3-7)" cx="11.132068" cy="300.39444" id="path972" rx="5.804297" ry="0.66145831" style="display:inline;opacity:0.7;fill:#ffffff;fill-opacity:1;stroke:none;stroke-width:2.3812499;stroke-miterlimit:4;stroke-dasharray:none;stroke-opacity:1;filter:url(#filter1252)" transform="translate(-0.01956742,-4.2543465)"/></g></g></svg>