<?xml version="1.0" ?><svg id="Layer_1" style="enable-background:new 0 0 37.8 29.3;" version="1.1" viewBox="0 0 37.8 29.3" xml:space="preserve" xmlns="http://www.w3.org/2000/svg" xmlns:xlink="http://www.w3.org/1999/xlink"><style type="text/css">
	.st0{clip-path:url(#SVGID_2_);}
	.st1{clip-path:url(#SVGID_4_);fill:none;stroke:#F4F5F5;stroke-miterlimit:10;}
	.st2{clip-path:url(#SVGID_6_);}
	.st3{clip-path:url(#SVGID_8_);enable-background:new    ;}
	.st4{clip-path:url(#SVGID_10_);}
	.st5{clip-path:url(#SVGID_12_);fill:#FFFFFF;}
	.st6{clip-path:url(#SVGID_14_);}
	.st7{clip-path:url(#SVGID_16_);fill:none;stroke:#F4F5F5;stroke-miterlimit:10;}
	.st8{clip-path:url(#SVGID_18_);}
	.st9{clip-path:url(#SVGID_20_);fill:#F8A24D;}
	.st10{clip-path:url(#SVGID_22_);}
	.st11{clip-path:url(#SVGID_24_);fill:#229E48;}
	.st12{clip-path:url(#SVGID_26_);}
	.st13{opacity:0.15;clip-path:url(#SVGID_28_);fill:#2D3086;}
	.st14{clip-path:url(#SVGID_30_);}
	.st15{clip-path:url(#SVGID_32_);fill:none;stroke:#2D3086;stroke-width:1.3333;stroke-miterlimit:10;}
	.st16{clip-path:url(#SVGID_34_);}
	.st17{clip-path:url(#SVGID_36_);fill:#2D3086;}
</style><g><defs><path d="M4.2,7.4c0-1.1,0.9-2,2-2h24c1.1,0,2,0.9,2,2v16c0,1.1-0.9,2-2,2h-24c-1.1,0-2-0.9-2-2V7.4z" id="SVGID_1_"/></defs><clipPath id="SVGID_2_"><use style="overflow:visible;" xlink:href="#SVGID_1_"/></clipPath><g class="st0"><defs><rect height="1228" id="SVGID_3_" width="948" x="-71.8" y="-406.6"/></defs><clipPath id="SVGID_4_"><use style="overflow:visible;" xlink:href="#SVGID_3_"/></clipPath><path class="st1" d="M4.2,7.4c0-1.1,0.9-2,2-2h24c1.1,0,2,0.9,2,2v16c0,1.1-0.9,2-2,2h-24c-1.1,0-2-0.9-2-2V7.4z"/></g></g><g><defs><path d="M4.2,7.4c0-1.1,0.9-2,2-2h24c1.1,0,2,0.9,2,2v16c0,1.1-0.9,2-2,2h-24c-1.1,0-2-0.9-2-2V7.4z" id="SVGID_5_"/></defs><clipPath id="SVGID_6_"><use style="overflow:visible;" xlink:href="#SVGID_5_"/></clipPath><g class="st2"><defs><rect height="1228" id="SVGID_7_" width="948" x="-71.8" y="-406.6"/></defs><clipPath id="SVGID_8_"><use style="overflow:visible;" xlink:href="#SVGID_7_"/></clipPath><g class="st3"><g><defs><rect height="20" id="SVGID_9_" width="28" x="4.2" y="5.4"/></defs><clipPath id="SVGID_10_"><use style="overflow:visible;" xlink:href="#SVGID_9_"/></clipPath><g class="st4"><defs><rect height="20" id="SVGID_11_" width="28" x="4.2" y="5.4"/></defs><clipPath id="SVGID_12_"><use style="overflow:visible;" xlink:href="#SVGID_11_"/></clipPath><path class="st5" d="M4.2,7.4c0-1.1,0.9-2,2-2h24c1.1,0,2,0.9,2,2v16c0,1.1-0.9,2-2,2h-24c-1.1,0-2-0.9-2-2V7.4z"/></g><g class="st4"><defs><path d="M4.2,7.4c0-1.1,0.9-2,2-2h24c1.1,0,2,0.9,2,2v16c0,1.1-0.9,2-2,2h-24c-1.1,0-2-0.9-2-2V7.4z" id="SVGID_13_"/></defs><clipPath id="SVGID_14_"><use style="overflow:visible;" xlink:href="#SVGID_13_"/></clipPath><g class="st6"><defs><rect height="20" id="SVGID_15_" width="28" x="4.2" y="5.4"/></defs><clipPath id="SVGID_16_"><use style="overflow:visible;" xlink:href="#SVGID_15_"/></clipPath><path class="st7" d="M4.2,7.4c0-1.1,0.9-2,2-2h24c1.1,0,2,0.9,2,2v16c0,1.1-0.9,2-2,2h-24c-1.1,0-2-0.9-2-2V7.4z"/></g></g><g class="st4"><defs><rect height="6.7" id="SVGID_17_" width="28" x="4.2" y="5.4"/></defs><clipPath id="SVGID_18_"><use style="overflow:visible;" xlink:href="#SVGID_17_"/></clipPath><g class="st8"><defs><rect height="20" id="SVGID_19_" width="28" x="4.2" y="5.4"/></defs><clipPath id="SVGID_20_"><use style="overflow:visible;" xlink:href="#SVGID_19_"/></clipPath><rect class="st9" height="16.7" width="38" x="-0.8" y="0.4"/></g></g><g class="st4"><defs><rect height="6.7" id="SVGID_21_" width="28" x="4.2" y="18.7"/></defs><clipPath id="SVGID_22_"><use style="overflow:visible;" xlink:href="#SVGID_21_"/></clipPath><g class="st10"><defs><rect height="20" id="SVGID_23_" width="28" x="4.2" y="5.4"/></defs><clipPath id="SVGID_24_"><use style="overflow:visible;" xlink:href="#SVGID_23_"/></clipPath><rect class="st11" height="16.7" width="38" x="-0.8" y="13.7"/></g></g><g class="st4"><defs><circle cx="18.2" cy="15.4" id="SVGID_25_" r="2.2"/></defs><clipPath id="SVGID_26_"><use style="overflow:visible;" xlink:href="#SVGID_25_"/></clipPath><g class="st12"><defs><rect height="20" id="SVGID_27_" width="28" x="4.2" y="5.4"/></defs><clipPath id="SVGID_28_"><use style="overflow:visible;" xlink:href="#SVGID_27_"/></clipPath><rect class="st13" height="14" width="14" x="11.2" y="8.4"/></g></g><g class="st4"><defs><path d="M18.2,17.4c1.1,0,2-0.9,2-2s-0.9-2-2-2s-2,0.9-2,2S17.1,17.4,18.2,17.4z M6.2,3.4h24v24h-24V3.4z" id="SVGID_29_"/></defs><clipPath id="SVGID_30_"><use style="overflow:visible;" xlink:href="#SVGID_29_"/></clipPath><g class="st14"><defs><rect height="20" id="SVGID_31_" width="28" x="4.2" y="5.4"/></defs><clipPath id="SVGID_32_"><use style="overflow:visible;" xlink:href="#SVGID_31_"/></clipPath><circle class="st15" cx="18.2" cy="15.4" r="2"/></g></g><g class="st4"><defs><circle cx="18.2" cy="15.4" id="SVGID_33_" r="0.7"/></defs><clipPath id="SVGID_34_"><use style="overflow:visible;" xlink:href="#SVGID_33_"/></clipPath><g class="st16"><defs><rect height="20" id="SVGID_35_" width="28" x="4.2" y="5.4"/></defs><clipPath id="SVGID_36_"><use style="overflow:visible;" xlink:href="#SVGID_35_"/></clipPath><rect class="st17" height="11.3" width="11.3" x="12.6" y="9.7"/></g></g></g></g></g></g></svg>