<?xml version="1.0" ?><svg id="Layer_1" style="enable-background:new 0 0 512 512;" version="1.1" viewBox="0 0 512 512" xml:space="preserve" xmlns="http://www.w3.org/2000/svg" xmlns:xlink="http://www.w3.org/1999/xlink"><style type="text/css">
	.st0{fill:#FFFFFF;}
	.st1{fill:#2E6934;}
</style><g><rect class="st0" height="298.7" width="512" y="106.7"/><rect class="st1" height="298.7" width="384" x="128" y="106.7"/><path class="st0" d="M311.9,166.4c49.4,0,89.4,40.1,89.4,89.6c0,49.5-40,89.6-89.4,89.6c-49.4,0-89.4-40.1-89.4-89.6   C222.5,206.5,262.6,166.4,311.9,166.4"/><path class="st1" d="M280.3,174.2c33.8-30.1,85.7-27.1,115.7,6.8c30.1,33.9,27,85.8-6.8,116c-33.8,30.1-85.7,27.1-115.7-6.8   C243.4,256.3,246.5,204.4,280.3,174.2"/><polygon class="st0" points="378.8,196.5 351.5,208.4 357.4,222.1  "/><polygon class="st0" points="378.8,196.5 363.7,222.2 350.9,214.7  "/><polygon class="st0" points="382.2,231.4 362.4,209.1 351.3,219  "/><polygon class="st0" points="382.2,231.4 353.1,225 356.3,210.4  "/><polygon class="st0" points="344.6,188.9 347.5,218.7 362.3,217.2  "/><polygon class="st0" points="344.6,188.9 364.4,211.3 353.2,221.2  "/><polygon class="st0" points="350.1,245.5 365.2,219.7 352.3,212.2  "/><polygon class="st0" points="350.1,245.5 347.2,215.8 362,214.3  "/><polygon class="st0" points="326.8,219.2 355.9,225.6 359.1,211.1  "/><polygon class="st0" points="326.8,219.2 354.1,207.3 360.1,221  "/></g></svg>